<svg width="172" height="38" viewBox="0 0 172 38" fill="none" xmlns="http://www.w3.org/2000/svg">
<path fill-rule="evenodd" clip-rule="evenodd" d="M16.5238 36.3389C15.4726 36.3522 14.5837 35.4354 14.5977 34.3536C14.6083 33.3031 15.4586 32.4345 16.4841 32.4213C17.5329 32.4092 18.4381 33.332 18.4229 34.4006C18.4066 35.4414 17.5399 36.3269 16.5238 36.3389ZM17.332 30.907C16.7609 30.7974 16.6044 30.5155 16.4747 30.0493C15.5882 26.8556 15.0369 23.5946 15.0918 20.2769C15.114 18.9662 14.5685 18.406 13.4333 18C13.2919 22.2116 13.7521 26.2798 14.9038 30.2553C15.0743 30.8383 15.0112 31.125 14.4774 31.4804C13.1086 32.3924 12.646 34.2391 13.2791 35.7992C13.9028 37.334 15.5707 38.2604 17.1299 37.9351C18.7932 37.5894 19.9752 36.151 19.9997 34.4476C20.0207 32.7429 18.9333 31.2154 17.332 30.907Z" fill="white"/>
<path fill-rule="evenodd" clip-rule="evenodd" d="M30.465 12.6743C29.4283 12.6792 28.5486 11.7925 28.5224 10.7194C28.4951 9.61929 29.3961 8.66023 30.4567 8.65655C31.478 8.65287 32.3719 9.56042 32.3921 10.6213C32.4124 11.7336 31.5339 12.6694 30.465 12.6743ZM33.2015 8.3291C32.1255 6.98985 30.2424 6.61088 28.7617 7.43013C27.2857 8.24693 26.5477 10.0179 27.05 11.7349C27.2072 12.272 27.0953 12.575 26.7477 12.9601C24.4897 15.4632 21.9901 17.6769 19.125 19.3853C18.0263 20.0377 17.8371 20.7895 18.1132 22C21.8246 19.92 25.0289 17.3359 27.8285 14.2122C28.1427 13.8639 28.3403 13.6653 28.8688 13.9375C30.4424 14.7494 32.2386 14.2907 33.2658 12.9184C34.268 11.5791 34.2419 9.62297 33.2015 8.3291Z" fill="white"/>
<path fill-rule="evenodd" clip-rule="evenodd" d="M3.6074 12.5257C2.51219 12.5424 1.61025 11.6559 1.62099 10.5766C1.63054 9.5212 2.48475 8.66466 3.5394 8.65388C4.64535 8.6395 5.52939 9.50802 5.52104 10.5958C5.51388 11.65 4.65728 12.5101 3.6074 12.5257ZM18.9201 16.1854C18.7077 16.0381 18.4918 15.8943 18.2722 15.7577C15.0081 13.7284 11.5232 12.2106 7.79974 11.251C7.3607 11.136 7.09108 11.0378 7.08869 10.434C7.08392 8.66825 5.86583 7.34691 4.12041 7.04862C2.48595 6.77069 0.849095 7.70749 0.247803 9.26603C-0.373771 10.8713 0.204853 12.6826 1.63769 13.599C3.10394 14.5406 4.91497 14.3537 6.1104 13.054C6.47786 12.6538 6.76419 12.661 7.2247 12.7796C10.3552 13.5906 13.3307 14.7958 16.1021 16.4514C17.1675 17.0875 18.0468 17.3211 19 16.3184C18.9785 16.2801 18.9606 16.2142 18.9201 16.1854Z" fill="white"/>
<path fill-rule="evenodd" clip-rule="evenodd" d="M30.2316 28.3602C29.0483 28.3413 28.1317 27.3894 28.159 26.2056C28.1851 25.0324 29.1586 24.1268 30.3478 24.1658C31.4814 24.2013 32.405 25.1555 32.3944 26.279C32.3861 27.4392 31.4102 28.378 30.2316 28.3602ZM33.8148 25.0833C33.1817 23.1371 31.0071 22.0219 29.0696 22.7606C28.4377 22.9997 28.1282 22.8766 27.7013 22.4481C27.1014 21.8419 26.435 21.2986 25.7651 20.7682C24.4762 19.7442 24.4679 19.756 23 20.7315C23.6853 21.2394 24.3126 21.6809 24.9102 22.1616C25.5101 22.6434 26.071 23.1726 26.6638 23.6627C27.035 23.9693 27.1618 24.2262 26.8879 24.727C26.435 25.5568 26.4326 26.4814 26.7136 27.3847C27.3314 29.37 29.4396 30.4532 31.4244 29.8187C33.3761 29.196 34.4563 27.0568 33.8148 25.0833Z" fill="white"/>
<path fill-rule="evenodd" clip-rule="evenodd" d="M16.9866 5.92053C15.7551 5.9133 14.7797 5.00219 14.7569 3.83833C14.7353 2.62512 15.7056 1.66105 16.9689 1.64179C18.2182 1.62494 19.2582 2.59382 19.2633 3.77935C19.2697 4.9697 18.2499 5.92775 16.9866 5.92053ZM18.0305 0.132495C16.1863 -0.340513 14.2622 0.483941 13.4188 2.11119C12.5753 3.74204 13.0269 5.67861 14.5844 6.77868C15.027 7.09041 15.1146 7.33474 14.9789 7.83182C14.6351 9.09437 14.4601 10.3882 14.365 11.6917C14.3345 12.0949 14.4106 12.3525 14.8292 12.5017C15.1932 12.6317 15.5395 12.8098 15.9732 13C16.0633 12.143 16.1216 11.3908 16.2244 10.6458C16.3271 9.90077 16.511 9.16418 16.5909 8.41555C16.6543 7.78488 16.9638 7.57906 17.6157 7.49963C19.4853 7.26974 20.8906 5.77971 20.9933 4.02849C21.1011 2.19905 19.8924 0.611521 18.0305 0.132495Z" fill="white"/>
<path fill-rule="evenodd" clip-rule="evenodd" d="M3.71513 29.2297C2.57113 29.2389 1.59495 28.3051 1.58667 27.1989C1.57958 26.0869 2.53567 25.1451 3.68204 25.1371C4.82249 25.128 5.81404 26.0674 5.82467 27.1646C5.83531 28.2503 4.8414 29.2217 3.71513 29.2297ZM12.1474 23.9829C11.4832 24.248 10.8403 24.5246 10.1832 24.7611C9.49067 25.0091 8.7804 25.2057 8.08549 25.4434C7.47567 25.6537 7.06795 25.6457 6.62358 25.0069C5.68995 23.6651 3.80731 23.2389 2.27331 23.8469C0.728673 24.4617 -0.152964 25.9463 0.0219454 27.6411C0.177945 29.1531 1.44958 30.4617 3.01904 30.728C4.68422 31.0114 6.59522 30.2549 6.98167 28.7211C7.3634 27.208 8.35731 26.9029 9.58285 26.6114C9.99413 26.5143 10.3912 26.3531 10.7895 26.2057C12.2928 25.6537 12.2916 25.6526 12.1474 23.9829Z" fill="white"/>
<path fill-rule="evenodd" clip-rule="evenodd" d="M46.7565 20.4514H43C43.0602 22.1737 43.7552 23.529 45.0848 24.5174C46.4144 25.5058 48.2022 26 50.4484 26C52.7634 26 54.6007 25.4761 55.9604 24.4283C57.3201 23.3805 58 21.9658 58 20.1842C58 18.7843 57.574 17.6708 56.722 16.8436C55.87 16.0164 54.5103 15.4077 52.6429 15.0174L50.3838 14.5466C49.3081 14.3005 48.5314 14.0036 48.0538 13.6557C47.5762 13.3079 47.3373 12.854 47.3373 12.294C47.3373 11.6153 47.6321 11.0681 48.2216 10.6524C48.8111 10.2367 49.5878 10.0288 50.5516 10.0288C51.5327 10.0288 52.3395 10.2515 52.972 10.6969C53.6046 11.1423 53.9509 11.7511 54.0112 12.5231H57.6644C57.6299 10.8517 56.9716 9.5134 55.6893 8.50804C54.4071 7.50267 52.6902 7 50.5387 7C48.4475 7 46.7371 7.51752 45.4075 8.55258C44.0779 9.58764 43.4131 10.9451 43.4131 12.6249C43.4131 15.3229 45.1213 17.0324 48.5379 17.7535L50.9647 18.2753C52.0921 18.5213 52.8967 18.8267 53.3787 19.1916C53.8606 19.5564 54.1015 20.0357 54.1015 20.6296C54.1015 21.3083 53.7767 21.8662 53.1269 22.3031C52.4772 22.74 51.636 22.9585 50.6033 22.9585C49.562 22.9585 48.682 22.7273 47.9634 22.2649C47.2448 21.8025 46.8425 21.198 46.7565 20.4514ZM73.3318 13.9586C72.2197 12.6528 70.6985 12 68.7684 12C67.7022 12 66.7509 12.2342 65.9145 12.7027C65.0781 13.1712 64.4577 13.8089 64.0533 14.6158H63.9706V12.1692H60V31H64.0257V24.0897H64.1085C64.5221 24.9053 65.1379 25.5386 65.9559 25.9897C66.7739 26.4409 67.7298 26.6664 68.8235 26.6664C70.7261 26.6664 72.2312 26.0114 73.3387 24.7014C74.4462 23.3913 75 21.5998 75 19.3267C75 17.0536 74.4439 15.2643 73.3318 13.9586ZM67.988 23C68.9036 23 69.6345 22.6377 70.1807 21.913C70.7269 21.1883 71 20.2153 71 18.9939C71 17.7888 70.7249 16.8219 70.1747 16.0931C69.6245 15.3644 68.8956 15 67.988 15C67.0883 15 66.3655 15.3664 65.8193 16.0992C65.2731 16.8321 65 17.801 65 19.0061C65 20.2112 65.2731 21.1781 65.8193 21.9069C66.3655 22.6356 67.0883 23 67.988 23ZM84.1627 23.193C83.6045 23.731 82.9147 24 82.0933 24C81.4553 24 80.947 23.8339 80.5682 23.5018C80.1894 23.1696 80 22.7181 80 22.1474C80 21.5766 80.1914 21.1275 80.5742 20.8C80.9569 20.4725 81.5112 20.2807 82.2368 20.2246L85 20V21.1368C85 21.9696 84.7209 22.655 84.1627 23.193ZM80.8424 27C79.4414 27 78.2841 26.594 77.3705 25.782C76.4568 24.97 76 23.9197 76 22.6311C76 21.316 76.4829 20.2877 77.4488 19.5463C78.4147 18.8049 79.8199 18.3769 81.6647 18.2621L85.254 18.0371V17.0706C85.254 16.3733 85.0321 15.8372 84.5884 15.462C84.1446 15.0869 83.5268 14.8994 82.7349 14.8994C82.0562 14.8994 81.4885 15.0649 81.0316 15.3959C80.5748 15.7268 80.2985 16.1615 80.2028 16.6999H76.7179C76.7701 15.3054 77.3639 14.1734 78.4995 13.3041C79.635 12.4347 81.0991 12 82.8916 12C84.7363 12 86.2155 12.4413 87.3293 13.3239C88.4431 14.2065 89 15.376 89 16.8323V26.8279H85.3193V24.5772H85.241C84.8581 25.3275 84.2642 25.9188 83.4593 26.3513C82.6544 26.7838 81.7821 27 80.8424 27ZM101.314 17.597H104.986C104.887 15.9552 104.23 14.6119 103.015 13.5672C101.8 12.5224 100.212 12 98.2498 12C96.0357 12 94.2739 12.676 92.9643 14.0281C91.6548 15.3802 91 17.2019 91 19.4934C91 21.8112 91.6548 23.6418 92.9643 24.9851C94.2739 26.3284 96.0447 27 98.2768 27C100.221 27 101.798 26.5018 103.009 25.5053C104.219 24.5088 104.883 23.1677 105 21.482H101.328C101.202 22.2722 100.878 22.8824 100.356 23.3126C99.8338 23.7428 99.1543 23.9579 98.3173 23.9579C97.2912 23.9579 96.4812 23.565 95.8872 22.7792C95.2932 21.9934 94.9961 20.8982 94.9961 19.4934C94.9961 18.1062 95.2932 17.0154 95.8872 16.2208C96.4812 15.4262 97.2867 15.029 98.3038 15.029C99.1408 15.029 99.8248 15.2638 100.356 15.7335C100.887 16.2033 101.206 16.8244 101.314 17.597ZM113.044 14C112.202 14 111.501 14.2773 110.941 14.8319C110.381 15.3866 110.067 16.1092 110 17H116C115.966 16.0924 115.68 15.3655 115.141 14.8193C114.602 14.2731 113.903 14 113.044 14ZM119.88 22.3248H116.286C116.099 22.8867 115.736 23.3279 115.198 23.6484C114.659 23.9688 114.02 24.1291 113.281 24.1291C112.256 24.1291 111.428 23.8064 110.796 23.1611C110.163 22.5158 109.847 21.6708 109.847 20.626V20.3889H120V19.2037C120 17 119.374 15.2485 118.123 13.9491C116.872 12.6497 115.186 12 113.067 12C110.912 12 109.195 12.6826 107.917 14.0478C106.639 15.4131 106 17.2502 106 19.5593C106 21.8683 106.643 23.6857 107.93 25.0114C109.217 26.3371 110.978 27 113.214 27C115.004 27 116.509 26.572 117.729 25.716C118.949 24.86 119.666 23.7296 119.88 22.3248Z" fill="white"/>
<path d="M142 7V26H138.479V13.1753H138.374L133.243 25.8157H130.757L125.626 13.1753H125.521V26H122V7H126.581L131.948 20.4699H132.052L137.419 7H142Z" fill="white"/>
<path fill-rule="evenodd" clip-rule="evenodd" d="M146.37 25.782C147.284 26.594 148.441 27 149.842 27C150.782 27 151.654 26.7838 152.459 26.3513C153.264 25.9188 153.858 25.3275 154.241 24.5772H154.319V26.8279H158V16.8323C158 15.376 157.443 14.2065 156.329 13.3239C155.216 12.4413 153.736 12 151.892 12C150.099 12 148.635 12.4347 147.499 13.3041C146.364 14.1734 145.77 15.3054 145.718 16.6999H149.203C149.299 16.1615 149.575 15.7268 150.032 15.3959C150.488 15.0649 151.056 14.8994 151.735 14.8994C152.527 14.8994 153.145 15.0869 153.588 15.462C154.032 15.8372 154.254 16.3733 154.254 17.0706V18.0371L150.665 18.2621C148.82 18.3769 147.415 18.8049 146.449 19.5463C145.483 20.2877 145 21.316 145 22.6311C145 23.9197 145.457 24.97 146.37 25.782ZM153.163 23.193C152.604 23.731 151.915 24 151.093 24C150.455 24 149.947 23.8339 149.568 23.5018C149.189 23.1696 149 22.7181 149 22.1474C149 21.5766 149.191 21.1275 149.574 20.8C149.957 20.4725 150.511 20.2807 151.237 20.2246L154 20V21.1368C154 21.9696 153.721 22.655 153.163 23.193Z" fill="white"/>
<path d="M164.947 21.7548H164.868L162.076 27H158L162.605 19.5204L158.04 12H162.393L165.066 17.109H165.146L167.805 12H172L167.422 19.4251L171.974 27H167.752L164.947 21.7548Z" fill="white"/>
</svg>
