<svg width="67" height="63" viewBox="0 0 67 63" fill="none" xmlns="http://www.w3.org/2000/svg">
<path d="M51.1389 38.1865L55.2941 42.3407C56.9662 44.0143 56.9662 46.7261 55.2941 48.3996V48.3996C53.6207 50.073 50.9076 50.073 49.2341 48.3996L45.0811 44.2476" stroke="white" stroke-width="2" stroke-linecap="square"/>
<path d="M39.0625 50.2662L41.012 52.2167C42.6732 53.8782 42.6732 56.5716 41.012 58.2331V58.2331C40.214 59.033 39.1299 59.4814 38 59.4789" stroke="white" stroke-width="2" stroke-linecap="square"/>
<path d="M6.36364 28.1818V21.6364L2 17.2727L17.2727 2L20.5455 5.27273H26" stroke="white" stroke-width="2" stroke-linecap="square"/>
<path fill-rule="evenodd" clip-rule="evenodd" d="M11.149 47.5129C9.6152 45.9791 9.6152 43.4923 11.149 41.9586L12.7778 40.3297C14.3116 38.7959 16.7984 38.7959 18.3322 40.3297L18.8371 40.8346C20.3709 42.3684 20.3709 44.8552 18.8371 46.389L17.2083 48.0178C15.6745 49.5516 13.1877 49.5516 11.6539 48.0178L11.149 47.5129Z" stroke="white" stroke-width="2" stroke-linecap="square"/>
<path fill-rule="evenodd" clip-rule="evenodd" d="M24.4582 58.3213C22.9351 56.7982 22.9351 54.3289 24.4582 52.8058L25.5335 51.7305C27.0565 50.2075 29.5259 50.2075 31.0489 51.7305L31.5503 52.2319C33.0734 53.755 33.0734 56.2243 31.5503 57.7473L30.475 58.8227C28.9519 60.3457 26.4826 60.3457 24.9596 58.8227L24.4582 58.3213Z" stroke="white" stroke-width="2" stroke-linecap="square"/>
<path fill-rule="evenodd" clip-rule="evenodd" d="M12.5066 40.5996L11.8739 41.2324C11.0724 42.0355 9.97629 42.4743 8.84201 42.4462C7.70773 42.4182 6.6347 41.9257 5.87386 41.084V41.084C4.40886 39.4635 4.45277 36.9843 5.97422 35.4167L6.60695 34.7698C8.19458 33.1455 10.7937 33.1012 12.4357 34.6705V34.6705C13.2431 35.4409 13.7057 36.5043 13.7191 37.6202C13.7324 38.736 13.2953 39.8102 12.5066 40.5996V40.5996Z" stroke="white" stroke-width="2" stroke-linecap="square"/>
<path fill-rule="evenodd" clip-rule="evenodd" d="M18.0407 52.705C16.5176 51.182 16.5176 48.7127 18.0407 47.1896L18.8599 46.3704C20.3829 44.8474 22.8523 44.8473 24.3753 46.3704L24.8767 46.8718C26.3998 48.3948 26.3998 50.8642 24.8767 52.3872L24.0575 53.2064C22.5345 54.7295 20.0651 54.7295 18.5421 53.2064L18.0407 52.705Z" stroke="white" stroke-width="2" stroke-linecap="square"/>
<path d="M48.4041 47.5738C49.2022 48.3717 49.6505 49.454 49.6505 50.5825C49.6505 51.711 49.2022 52.7933 48.4041 53.5912V53.5912C46.7426 55.2524 44.0492 55.2524 42.3877 53.5912L40.9783 52.1818" stroke="white" stroke-width="2" stroke-linecap="square"/>
<path d="M54.1192 41.1636C54.9216 41.965 56.0172 42.4026 57.1509 42.3746C58.2846 42.3465 59.3573 41.8553 60.1192 41.0153V41.0153C61.5842 39.3948 61.5402 36.9156 60.0188 35.348L46.1555 21.1018" stroke="white" stroke-width="2"/>
<path d="M60.9091 28.1818V21.6364L65.2727 17.2727L50 2L46.7273 5.27273H39.5786C36.0866 5.27253 32.7377 6.65974 30.2687 9.12909L20.2258 19.5702C18.8908 20.9334 18.8079 23.0871 20.0341 24.5489C21.2602 26.0108 23.3955 26.3039 24.9702 25.2265L35.6611 18.3342C37.5292 20.4524 40.2263 21.6531 43.0504 21.6238C45.8745 21.5945 48.5462 20.338 50.3698 18.1815" stroke="white" stroke-width="2" stroke-linecap="square"/>
</svg>
