<svg width="72" height="72" viewBox="0 0 72 72" fill="none" xmlns="http://www.w3.org/2000/svg">
<path fill-rule="evenodd" clip-rule="evenodd" d="M50.4369 65.2345H52.9578V53.8862H50.4369V65.2345Z" fill="white"/>
<path fill-rule="evenodd" clip-rule="evenodd" d="M13.8701 61.4518H16.392V53.8862H13.8701V61.4518Z" fill="white"/>
<path fill-rule="evenodd" clip-rule="evenodd" d="M33.7343 7.23181V9.75366H69.3503V14.7973H71.8721V7.23181H33.7343Z" fill="white"/>
<path fill-rule="evenodd" clip-rule="evenodd" d="M21.4357 53.8853H23.9566V32.3988H21.4357V53.8853Z" fill="white"/>
<path fill-rule="evenodd" clip-rule="evenodd" d="M69.3501 32.4506V69.0173H23.9578V65.2346H21.4359V71.5392H71.8719V32.4506H69.3501Z" fill="white"/>
<path fill-rule="evenodd" clip-rule="evenodd" d="M69.3499 19.8413H71.8717V17.3195H69.3499V19.8413Z" fill="white"/>
<path fill-rule="evenodd" clip-rule="evenodd" d="M69.3499 24.885H71.8717V22.3632H69.3499V24.885Z" fill="white"/>
<path fill-rule="evenodd" clip-rule="evenodd" d="M69.3499 29.9286H71.8717V27.4067H69.3499V29.9286Z" fill="white"/>
<path fill-rule="evenodd" clip-rule="evenodd" d="M26.3471 24.0139L20.1744 17.8413V7.23145H22.6963V16.7973L28.1304 22.2305L26.3471 24.0139Z" fill="white"/>
<path fill-rule="evenodd" clip-rule="evenodd" d="M5.0437 32.4504H7.56555V29.9286H5.0437V32.4504Z" fill="white"/>
<path fill-rule="evenodd" clip-rule="evenodd" d="M0 18.5803H2.52185V16.0585H0V18.5803Z" fill="white"/>
<path fill-rule="evenodd" clip-rule="evenodd" d="M1.26086 26.1459H3.78271V23.624H1.26086V26.1459Z" fill="white"/>
<path fill-rule="evenodd" clip-rule="evenodd" d="M1.26086 11.0148H3.78271V8.49292H1.26086V11.0148Z" fill="white"/>
<path fill-rule="evenodd" clip-rule="evenodd" d="M5.0437 4.7102H7.56555V2.18835H5.0437V4.7102Z" fill="white"/>
<path fill-rule="evenodd" clip-rule="evenodd" d="M37.8276 4.7102H52.9587V2.18835H37.8276V4.7102Z" fill="white"/>
<path fill-rule="evenodd" clip-rule="evenodd" d="M55.4806 4.7102H59.2634V2.18835H55.4806V4.7102Z" fill="white"/>
<path fill-rule="evenodd" clip-rule="evenodd" d="M36.5668 32.4504H49.176V29.9286H36.5668V32.4504Z" fill="white"/>
<path fill-rule="evenodd" clip-rule="evenodd" d="M36.5668 37.4932H49.176V34.9723H36.5668V37.4932Z" fill="white"/>
<path fill-rule="evenodd" clip-rule="evenodd" d="M30.2622 45.0597H52.9588V42.5378H30.2622V45.0597Z" fill="white"/>
<path fill-rule="evenodd" clip-rule="evenodd" d="M60.5244 48.1031L56.3512 43.9308L58.1346 42.1484L60.5244 44.5382L65.4352 39.6256L67.2186 41.409L60.5244 48.1031Z" fill="white"/>
<path fill-rule="evenodd" clip-rule="evenodd" d="M21.4333 31.1902C13.7911 31.1902 7.56866 24.9696 7.56866 17.3173C7.56866 9.67331 13.7911 3.45177 21.4333 3.45177C29.0856 3.45177 35.3071 9.67331 35.3071 17.3173C35.3071 24.9696 29.0856 31.1902 21.4333 31.1902ZM35.9717 9.75638C35.5102 8.86192 34.9656 8.01269 34.3379 7.22715C31.3379 3.38808 26.668 0.923462 21.4333 0.923462C12.3964 0.923462 5.03943 8.28039 5.03943 17.3173C5.03943 26.3542 12.3964 33.7102 21.4333 33.7102C22.2927 33.7102 23.1327 33.6456 23.9533 33.5173C31.7994 32.2979 37.828 25.4948 37.828 17.3173C37.828 14.5942 37.1625 12.0179 35.9717 9.75638Z" fill="white"/>
<path fill-rule="evenodd" clip-rule="evenodd" d="M51.3044 63.9694H13.2368C10.8091 63.9694 8.82444 61.9931 8.82444 59.5571C8.82444 57.1294 10.8091 55.1438 13.2368 55.1438H51.3044L52.9568 56.2977L57.6091 59.5571L52.9568 62.8155L51.3044 63.9694ZM52.0983 52.6248H13.2368C9.41521 52.6248 6.30444 55.7355 6.30444 59.5571C6.30444 63.3878 9.41521 66.4977 13.2368 66.4977H52.0983L62.0029 59.5571L52.0983 52.6248Z" fill="white"/>
<path fill-rule="evenodd" clip-rule="evenodd" d="M60.6356 21.3351L60.6637 19.1396C61.3441 19.1466 63.4625 18.9789 63.4484 20.2689C63.4344 21.5105 61.316 21.3428 60.6356 21.3351ZM60.6987 16.145C61.2599 16.1514 63.0346 15.99 63.0199 17.1692C63.0065 18.2908 61.2389 18.1435 60.6777 18.1365L60.6987 16.145ZM64.4445 18.3336C65.1242 17.9962 65.5528 17.4006 65.4686 16.3898C65.3557 15.008 64.1709 14.5317 62.6691 14.3844L62.6909 12.4687L61.5265 12.4554L61.5054 14.3205C61.1968 14.3135 60.8881 14.3205 60.5725 14.3205L60.6005 12.4477L59.4361 12.4343L59.408 14.3416C59.1555 14.3486 58.91 14.3486 58.6715 14.3486V14.3416L57.0652 14.3205L57.0512 15.5628C57.0512 15.5628 57.9069 15.5558 57.8929 15.5762C58.3629 15.5762 58.5165 15.8567 58.5593 16.0889L58.4962 21.3281C58.4751 21.4754 58.3839 21.7139 58.0542 21.7069C58.0683 21.7216 57.2055 21.7006 57.2055 21.7006L56.96 23.0888L58.4751 23.1035C58.7557 23.1098 59.0363 23.1168 59.3028 23.1245L59.2818 25.0536L60.4455 25.0739L60.4673 23.1596C60.7899 23.1659 61.0986 23.1729 61.4002 23.18L61.3721 25.0816L62.5366 25.0949L62.5646 23.1659C64.5217 23.0747 65.8965 22.5985 66.0859 20.7606C66.2402 19.2869 65.5528 18.6135 64.4445 18.3336Z" fill="white"/>
</svg>
