<svg width="72" height="65" viewBox="0 0 72 65" fill="none" xmlns="http://www.w3.org/2000/svg">
<path fill-rule="evenodd" clip-rule="evenodd" d="M49.7831 42.1725H64.3537V39.744H49.7831V42.1725Z" fill="white"/>
<path fill-rule="evenodd" clip-rule="evenodd" d="M48.5689 14.2453H58.2827V11.8169H48.5689V14.2453Z" fill="white"/>
<path fill-rule="evenodd" clip-rule="evenodd" d="M60.7111 14.2453H64.3538V11.8169H60.7111V14.2453Z" fill="white"/>
<path fill-rule="evenodd" clip-rule="evenodd" d="M4.85779 13.0311H7.28534V10.6027H4.85779V13.0311Z" fill="white"/>
<path fill-rule="evenodd" clip-rule="evenodd" d="M4.85779 17.888H7.28534V15.4596H4.85779V17.888Z" fill="white"/>
<path fill-rule="evenodd" clip-rule="evenodd" d="M63.9413 31.2454H71.2258V28.816H63.9413V31.2454Z" fill="white"/>
<mask id="mask0" mask-type="alpha" maskUnits="userSpaceOnUse" x="0" y="0" width="47" height="65">
<path fill-rule="evenodd" clip-rule="evenodd" d="M0 0.88916H46.1412V64.0285H0V0.88916Z" fill="white"/>
</mask>
<g mask="url(#mask0)">
<path fill-rule="evenodd" clip-rule="evenodd" d="M42.4976 64.0287H3.64248C1.63448 64.0287 -0.000183105 62.394 -0.000183105 60.3852V4.53094C-0.000183105 2.52383 1.63448 0.88916 3.64248 0.88916H42.4976C44.5065 0.88916 46.1412 2.52383 46.1412 4.53094V14.2456H43.7118V4.53094C43.7118 3.8616 43.1678 3.31672 42.4976 3.31672H3.64248C2.97226 3.31672 2.42826 3.8616 2.42826 4.53094V60.3852C2.42826 61.0554 2.97226 61.6003 3.64248 61.6003H42.4976C43.1678 61.6003 43.7118 61.0554 43.7118 60.3852V39.7443H46.1412V60.3852C46.1412 62.394 44.5065 64.0287 42.4976 64.0287Z" fill="white"/>
</g>
<mask id="mask1" mask-type="alpha" maskUnits="userSpaceOnUse" x="0" y="0" width="72" height="65">
<path fill-rule="evenodd" clip-rule="evenodd" d="M0 64.0285H71.2267V0.888916H0V64.0285Z" fill="white"/>
</mask>
<g mask="url(#mask1)">
<path fill-rule="evenodd" clip-rule="evenodd" d="M20.6418 59.1716H25.4987V56.7432H20.6418V59.1716Z" fill="white"/>
<path fill-rule="evenodd" clip-rule="evenodd" d="M1.21423 54.3138H44.9262V51.8862H1.21423V54.3138Z" fill="white"/>
<path fill-rule="evenodd" clip-rule="evenodd" d="M1.21423 8.17417H44.9262V5.74573H1.21423V8.17417Z" fill="white"/>
<path fill-rule="evenodd" clip-rule="evenodd" d="M14.5706 36.1015H7.28522V33.6731H14.5706C16.5154 33.6731 17.1128 32.3664 18.1057 29.1593C19.015 26.2198 20.1474 22.5629 24.151 21.0544L27.4746 19.7202L28.3777 21.9718L25.0301 23.3149C22.1145 24.4144 21.2559 27.1904 20.4248 29.8749C19.5217 32.7931 18.4986 36.1015 14.5706 36.1015Z" fill="white"/>
<path fill-rule="evenodd" clip-rule="evenodd" d="M7.41434 44.5982L7.37878 42.1706C10.6001 42.1217 16.4766 42.0053 18.0686 41.8782C22.2623 41.5439 26.7743 39.5875 30.7752 36.3697C33.5077 34.1715 35.9557 32.1999 36.0979 32.0835C36.2837 31.9048 36.4268 31.5742 36.4268 31.2453C36.4268 30.4444 35.5912 29.8453 34.8303 30.0924C34.5477 30.2017 34.2472 30.3679 33.9139 30.5448C32.4063 31.3528 30.3432 32.4586 24.2846 32.4586V30.0302C29.7326 30.0302 31.4161 29.1297 32.7663 28.4044C33.1743 28.1848 33.5601 27.9786 34.0108 27.8071C36.593 26.9377 38.8552 28.8426 38.8552 31.2453C38.8552 32.2444 38.4375 33.2097 37.7112 33.8977C37.6526 33.9502 37.6348 33.9679 32.2979 38.2622C27.9219 41.7831 22.937 43.9271 18.2606 44.3013C16.2268 44.4631 8.31123 44.5848 7.41434 44.5982Z" fill="white"/>
<path fill-rule="evenodd" clip-rule="evenodd" d="M30.4587 21.4418H36.7351V19.6863H30.4587V21.4418Z" fill="white"/>
<path fill-rule="evenodd" clip-rule="evenodd" d="M53.2347 34.6329H55.5556V32.312H53.2347V34.6329Z" fill="white"/>
<path fill-rule="evenodd" clip-rule="evenodd" d="M49.6293 34.6329H51.9502V32.312H49.6293V34.6329Z" fill="white"/>
<path fill-rule="evenodd" clip-rule="evenodd" d="M57.9369 35.0253C57.928 35.4875 57.3947 35.8875 56.7636 35.8697L29.6702 35.4875C29.3325 35.4875 29.0125 35.372 28.7902 35.1764C28.6836 35.0786 28.5147 34.8831 28.5147 34.6164L28.7369 18.7133C28.7458 18.4386 28.9236 18.252 29.0302 18.1631C29.2525 17.9764 29.5636 17.8697 29.8925 17.8697H29.9102L57.0036 18.252C57.6347 18.2609 58.168 18.6609 58.1591 19.1231L57.9369 35.0253ZM57.0391 16.2964L29.9369 15.9142C29.128 15.9142 28.3636 16.172 27.7769 16.6609C27.1547 17.1764 26.7902 17.9142 26.7814 18.6875L26.5591 34.5897C26.5502 35.3542 26.888 36.1097 27.5014 36.6431C28.0702 37.1497 28.8347 37.4342 29.6347 37.4431L56.7369 37.8244H56.7814C58.4791 37.8244 59.8658 36.5897 59.8925 35.052L60.1147 19.1497C60.1325 17.6022 58.7547 16.3142 57.0391 16.2964Z" fill="white"/>
<path fill-rule="evenodd" clip-rule="evenodd" d="M44.4169 28.0564C44.2213 28.82 42.9236 28.4031 42.4969 28.3044L42.8436 26.9355C43.2613 27.0422 44.6124 27.2475 44.4169 28.0564Z" fill="white"/>
<path fill-rule="evenodd" clip-rule="evenodd" d="M44.6036 26.0565C44.4258 26.7489 43.3502 26.3943 42.9947 26.3143L43.3058 25.0698C43.6614 25.1578 44.7902 25.3187 44.6036 26.0565Z" fill="white"/>
<path fill-rule="evenodd" clip-rule="evenodd" d="M46.2476 25.9315C46.1507 26.5724 45.7943 26.8826 45.3232 26.9893C45.9721 27.3271 46.3019 27.8515 45.9899 28.7493C45.5996 29.8702 44.6663 29.9582 43.4299 29.728L43.1276 30.9271L42.4085 30.7493L42.7019 29.568C42.5152 29.5137 42.3285 29.4693 42.1232 29.416L41.8299 30.608L41.1107 30.4213L41.4041 29.2204C41.2343 29.176 41.0663 29.1324 40.8885 29.088L39.9454 28.8471L40.3099 28.0213C40.3099 28.0213 40.8085 28.1537 40.8343 28.1537C41.0396 28.208 41.1276 28.0737 41.1632 27.9857L41.981 24.7235C41.9899 24.5724 41.9365 24.376 41.6432 24.296L41.1107 24.1724L41.3054 23.3982L42.3019 23.648C42.4521 23.6835 42.6121 23.7191 42.773 23.7546L43.0663 22.5724L43.7854 22.7493L43.501 23.9137C43.6974 23.9582 43.893 24.0026 44.0796 24.0471L44.3641 22.8915L45.0921 23.0693L44.7987 24.2604C45.7063 24.5804 46.381 25.0524 46.2476 25.9315ZM44.933 20.4657C41.3943 19.5849 37.813 21.736 36.933 25.2746C36.0521 28.8115 38.2032 32.3946 41.7419 33.2746C45.2787 34.1537 48.861 32.0026 49.7419 28.4657C50.6219 24.9271 48.4699 21.3457 44.933 20.4657Z" fill="white"/>
<path fill-rule="evenodd" clip-rule="evenodd" d="M44.4169 28.0564C44.2213 28.82 42.9236 28.4031 42.4969 28.3044L42.8436 26.9355C43.2613 27.0422 44.6124 27.2475 44.4169 28.0564Z" fill="white"/>
<path fill-rule="evenodd" clip-rule="evenodd" d="M44.6036 26.0565C44.4258 26.7489 43.3502 26.3943 42.9947 26.3143L43.3058 25.0698C43.6614 25.1578 44.7902 25.3187 44.6036 26.0565Z" fill="white"/>
<path fill-rule="evenodd" clip-rule="evenodd" d="M44.6036 26.0565C44.4258 26.7489 43.3502 26.3943 42.9947 26.3143L43.3058 25.0698C43.6614 25.1578 44.7902 25.3187 44.6036 26.0565Z" fill="white"/>
<path fill-rule="evenodd" clip-rule="evenodd" d="M44.4169 28.0564C44.2213 28.82 42.9236 28.4031 42.4969 28.3044L42.8436 26.9355C43.2613 27.0422 44.6124 27.2475 44.4169 28.0564Z" fill="white"/>
</g>
</svg>
