<svg width="46" height="46" viewBox="0 0 46 46" fill="none" xmlns="http://www.w3.org/2000/svg">
<path d="M25.2231 33C26.1331 28.992 29.7171 26 34.0001 26C37.5341 26 40.5271 28.037 42.0001 31" stroke="white" stroke-width="2"/>
<path d="M1 9H45" stroke="white" stroke-width="2" stroke-linecap="square"/>
<path d="M1 19H45V5C45 2.8 43.2 1 41 1H31H5C2.8 1 1 2.8 1 5V31C1 33.2 2.8 35 5 35H17" stroke="white" stroke-width="2" stroke-linecap="square"/>
<path d="M8 27H17" stroke="white" stroke-width="2" stroke-linecap="square"/>
<path d="M42 25V31H36" stroke="white" stroke-width="2" stroke-linecap="square"/>
<path d="M42.777 37C41.867 41.008 38.283 44 34 44C30.466 44 27.473 41.963 26 39" stroke="white" stroke-width="2"/>
<path d="M26 45V39H32" stroke="white" stroke-width="2" stroke-linecap="square"/>
</svg>
